# xmcd
#
# Track frame offsets:
#	150
#	19839
#	39065
#	58501
#	83287
#	105299
#	127809
#	146957
#	169436
#	190422
#	213380
#	233574
#	255704
#	278776
#	291230
#	309600
#
# Disc length: 4404 seconds
#
# Revision: 1
# Processed by: cddbd v1.5PL3 Copyright (c) Steve Scherf et al.
# Submitted via: CDex 1.50Beta5
#
DISCID=da113210
DTITLE=DANCE☆MAN - Greatest Hits
DYEAR=2002
DGENRE=Pop
TTITLE0=ワンBoxのオーナー
TTITLE1=接吻のテーマ
TTITLE2=バスタオル舞うお風呂
TTITLE3=ヘンなあだ名はイヤ
TTITLE4=勝利V絶対つかもう！
TTITLE5=恋と愛の天国
TTITLE6=じゃあ、明日にすれば？
TTITLE7=いつもゴールデンかラブラドール
TTITLE8=夢中の半年
TTITLE9=寝たのね
TTITLE10=漢字読めるけど書けない
TTITLE11=ミルク好き
TTITLE12=ダンス部　部長南原
TTITLE13=応援
TTITLE14=よくある名字「斉藤」
TTITLE15=背の高いヤツはジャマ
EXTD=
EXTT0=
EXTT1=
EXTT2=
EXTT3=
EXTT4=
EXTT5=
EXTT6=
EXTT7=
EXTT8=
EXTT9=
EXTT10=
EXTT11=
EXTT12=
EXTT13=
EXTT14=
EXTT15=
PLAYORDER=
